<svg width="1000" height="1000" viewBox="0 0 1000 1000" fill="none" xmlns="http://www.w3.org/2000/svg">
<path d="M1000 0H0V1000H1000V0Z" fill="white"/>
<path d="M98.8828 695.797V337.86H150.883L229.383 525.047V337.86H289.383V695.797H239.383L161.07 497.235V695.735L98.8828 695.797Z" fill="#0C2A54"/>
<path d="M327.409 583.911V457.911C327.409 373.411 362.575 331.14 432.909 331.098C446.343 330.904 459.721 332.866 472.534 336.91C483.228 340.303 493.131 345.807 501.658 353.098C509.684 360.245 516.244 368.884 520.971 378.535C526.112 388.917 529.792 399.959 531.909 411.348C534.256 424.213 535.386 437.271 535.284 450.348V471.41H466.096V446.41C466.096 440.16 466.096 434.723 465.659 430.036C465.229 424.75 464.393 419.505 463.159 414.348C462.129 409.364 460.315 404.575 457.784 400.161C455.363 396.274 452.012 393.052 448.034 390.785C443.428 388.182 438.198 386.885 432.909 387.036C410.784 387.036 399.721 404.64 399.721 439.848V594.223C399.721 629.348 410.784 646.91 432.909 646.91C455.034 646.91 466.034 628.702 465.909 592.285V563.66H424.909V511.785H538.158V695.785H488.159L479.034 670.786C472.544 680.663 463.551 688.643 452.971 693.91C442.265 699.657 430.31 702.683 418.159 702.723C406.11 702.872 394.164 700.487 383.096 695.723C373.151 691.438 364.258 685.04 357.034 676.973C349.94 668.802 344.143 659.591 339.846 649.66C335.272 639.406 331.936 628.642 329.909 617.598C328.13 606.459 327.294 595.19 327.409 583.911Z" fill="#0C2A54"/>
<path d="M577.887 695.543V338.043H650.2V695.543H577.887Z" fill="#0C2A54"/>
<path d="M688.245 576.356V457.606C688.245 373.106 722.828 330.835 791.995 330.793C805.163 330.598 818.274 332.561 830.807 336.605C841.168 339.877 850.734 345.266 858.901 352.432C867.067 359.598 873.655 368.383 878.245 378.23C883.324 388.62 886.941 399.662 888.995 411.043C891.265 423.917 892.353 436.971 892.245 450.043V480.856H821.12V447.981C821.12 441.731 821.119 435.918 820.744 431.23C820.368 425.82 819.68 420.436 818.682 415.105C817.854 410.021 816.318 405.077 814.12 400.418C812.11 396.548 809.166 393.24 805.557 390.793C801.568 388.069 796.823 386.669 791.995 386.793C771.161 386.793 760.745 404.397 760.745 439.606V594.23C760.745 629.355 771.161 646.918 791.995 646.918C797.703 647.092 803.279 645.181 807.682 641.543C812.192 637.522 815.375 632.226 816.807 626.355C818.606 620.037 819.86 613.576 820.557 607.043C821.265 599.878 821.598 592.68 821.557 585.48V548.668H892.307V579.23C892.12 591.797 890.992 604.332 888.932 616.73C886.938 628.309 883.538 639.601 878.807 650.355C874.474 660.556 868.31 669.876 860.619 677.856C852.51 685.848 842.796 692.026 832.12 695.981C819.268 700.747 805.636 703.058 791.932 702.793C777.9 703.018 763.938 700.775 750.683 696.168C739.673 692.333 729.583 686.245 721.058 678.293C713.014 670.359 706.527 660.989 701.933 650.668C696.888 639.707 693.314 628.128 691.307 616.231C689.172 603.048 688.148 589.71 688.245 576.356Z" fill="#0C2A54"/>
<path d="M577.883 312.305H650.258V234.68L577.883 312.305Z" fill="#3ABEB5"/>
</svg>
